<svg width="75" height="32" viewBox="0 0 75 32" fill="none" xmlns="http://www.w3.org/2000/svg">
<path d="M13.9922 4.12035C14.8638 3.01117 15.4553 1.52188 15.2993 0C14.0234 0.0645484 12.4663 0.856418 11.5648 1.96646C10.7554 2.91704 10.039 4.46869 10.2258 5.92677C11.6581 6.05317 13.0891 5.1984 13.9922 4.12035Z" fill="#F5F5F5"/>
<path d="M15.2831 6.21148C13.203 6.08543 11.4344 7.41254 10.4411 7.41254C9.44721 7.41254 7.92608 6.27501 6.28086 6.30567C4.13949 6.33767 2.15255 7.56945 1.0659 9.52857C-1.16916 13.4478 0.476064 19.2613 2.64954 22.4533C3.70503 24.0325 4.97707 25.7713 6.65319 25.7088C8.23684 25.6456 8.85756 24.6655 10.7825 24.6655C12.7061 24.6655 13.2653 25.7088 14.9417 25.6772C16.6801 25.6456 17.7669 24.0972 18.8224 22.5165C20.0333 20.7164 20.5289 18.9781 20.5601 18.8827C20.5289 18.8511 17.2079 17.5549 17.1771 13.6683C17.1457 10.414 19.7845 8.86603 19.9087 8.77003C18.4186 6.52783 16.0903 6.27501 15.2831 6.21148Z" fill="#F5F5F5"/>
<path d="M33.3947 1.80727C37.9157 1.80727 41.0638 4.9778 41.0638 9.59385C41.0638 14.2264 37.8509 17.4134 33.2813 17.4134H28.2757V25.5121H24.6592V1.80727L33.3947 1.80727ZM28.2757 14.3249H32.4255C35.5742 14.3249 37.3663 12.6002 37.3663 9.61033C37.3663 6.62073 35.5742 4.91221 32.4417 4.91221H28.2757V14.3249Z" fill="#F5F5F5"/>
<path d="M42.0087 20.6003C42.0087 17.5775 44.2854 15.7213 48.3224 15.4913L52.9724 15.2121V13.8816C52.9724 11.9595 51.6967 10.8096 49.5657 10.8096C47.5469 10.8096 46.2874 11.7951 45.9809 13.3394H42.687C42.8808 10.218 45.4963 7.91823 49.6947 7.91823C53.812 7.91823 56.4438 10.136 56.4438 13.6021V25.512H53.1013V22.6701H53.021C52.0362 24.5922 49.8884 25.8077 47.6603 25.8077C44.334 25.8077 42.0087 23.705 42.0087 20.6003ZM52.9724 19.0398V17.6763L48.7902 17.939C46.7072 18.087 45.5287 19.0233 45.5287 20.5018C45.5287 22.0129 46.7558 22.9987 48.6289 22.9987C51.0669 22.9987 52.9724 21.2902 52.9724 19.0398Z" fill="#F5F5F5"/>
<path d="M59.5994 31.8696V28.9947C59.8573 29.0603 60.4384 29.0603 60.7293 29.0603C62.3439 29.0603 63.216 28.3704 63.7485 26.5963C63.7485 26.5634 64.0556 25.545 64.0556 25.5285L57.9201 8.23034H61.6979L65.9935 22.2924H66.0576L70.3531 8.23034H74.0345L67.6722 26.4154C66.2196 30.6047 64.5402 31.9516 61.0202 31.9516C60.7293 31.9516 59.8573 31.9187 59.5994 31.8696Z" fill="#F5F5F5"/>
</svg>
