<svg width="40" height="40" viewBox="0 0 40 40" fill="none" xmlns="http://www.w3.org/2000/svg">
<rect width="40" height="40" rx="20" fill="#F7931A"/>
<path fill-rule="evenodd" clip-rule="evenodd" d="M14.2142 9.13236L18.8106 10.3633L19.8379 6.53418L22.136 7.15782L21.1488 10.8287L23.0233 11.3324L24.0124 7.62145L26.3506 8.24691L25.3433 11.9778C25.3433 11.9778 29.1615 12.8233 30.0597 15.9287C30.9579 19.0342 28.0851 20.6651 27.1978 20.7269C27.1978 20.7269 30.5433 22.5615 29.3942 26.1705C28.2451 29.7796 24.7179 30.4251 21.0069 29.5978L19.9997 33.4669L17.6615 32.8415L18.6888 29.0324L16.8342 28.5269L15.8069 32.3633L13.4869 31.7396L14.516 27.9215L9.79785 26.6487L10.9869 24.0087C10.9869 24.0087 12.3179 24.3724 12.8215 24.4924C13.3251 24.6124 13.6488 24.0887 13.7906 23.5651C13.9324 23.0415 16.0688 14.3633 16.2706 13.6487C16.4724 12.9342 16.3906 12.376 15.5433 12.156C14.696 11.936 13.5433 11.5924 13.5433 11.5924L14.2142 9.13236ZM18.8506 20.6251L17.5779 25.6851C17.5779 25.6851 23.8888 27.9633 24.696 24.7578C25.5033 21.5524 18.8506 20.6251 18.8506 20.6251ZM19.436 18.2251L20.6851 13.5887C20.6851 13.5887 26.0888 14.556 25.4233 17.136C24.7579 19.716 21.5724 18.7269 19.436 18.2251Z" fill="white"/>
</svg>
