<svg width="90" height="132" viewBox="0 0 90 132" fill="none" xmlns="http://www.w3.org/2000/svg">
  <defs>
    <linearGradient id="goldBar1" x1="0%" y1="0%" x2="0%" y2="100%">
      <stop offset="0%" stop-color="#D4A84B"/>
      <stop offset="50%" stop-color="#C49A3D"/>
      <stop offset="100%" stop-color="#A67C2E"/>
    </linearGradient>
    <linearGradient id="goldBar2" x1="0%" y1="0%" x2="0%" y2="100%">
      <stop offset="0%" stop-color="#C9A043"/>
      <stop offset="50%" stop-color="#B8923A"/>
      <stop offset="100%" stop-color="#9A7428"/>
    </linearGradient>
    <linearGradient id="goldBar3" x1="0%" y1="0%" x2="0%" y2="100%">
      <stop offset="0%" stop-color="#BF9640"/>
      <stop offset="50%" stop-color="#A88535"/>
      <stop offset="100%" stop-color="#8C6A25"/>
    </linearGradient>
    <linearGradient id="fadeOut" x1="0%" y1="0%" x2="100%" y2="0%">
      <stop offset="0%" stop-color="white" stop-opacity="1"/>
      <stop offset="70%" stop-color="white" stop-opacity="1"/>
      <stop offset="100%" stop-color="white" stop-opacity="0"/>
    </linearGradient>
    <mask id="fadeMask">
      <rect width="90" height="132" fill="url(#fadeOut)"/>
    </mask>
  </defs>
  <g mask="url(#fadeMask)">
    <!-- Top row of bars -->
    <g transform="translate(-15, 8)">
      <path d="M0 18 L8 12 L78 12 L85 18 L85 28 L78 34 L8 34 L0 28 Z" fill="url(#goldBar1)"/>
      <path d="M8 12 L78 12 L85 18 L8 18 Z" fill="#E8C65C" opacity="0.6"/>
      <path d="M0 18 L8 12 L8 34 L0 28 Z" fill="#8B6914" opacity="0.5"/>
    </g>
    <!-- Second row -->
    <g transform="translate(-20, 32)">
      <path d="M0 18 L8 12 L78 12 L85 18 L85 28 L78 34 L8 34 L0 28 Z" fill="url(#goldBar2)"/>
      <path d="M8 12 L78 12 L85 18 L8 18 Z" fill="#DCBA54" opacity="0.6"/>
      <path d="M0 18 L8 12 L8 34 L0 28 Z" fill="#7A5C12" opacity="0.5"/>
    </g>
    <!-- Third row -->
    <g transform="translate(-25, 56)">
      <path d="M0 18 L8 12 L78 12 L85 18 L85 28 L78 34 L8 34 L0 28 Z" fill="url(#goldBar3)"/>
      <path d="M8 12 L78 12 L85 18 L8 18 Z" fill="#D4B04C" opacity="0.6"/>
      <path d="M0 18 L8 12 L8 34 L0 28 Z" fill="#6B5010" opacity="0.5"/>
    </g>
    <!-- Fourth row -->
    <g transform="translate(-30, 80)">
      <path d="M0 18 L8 12 L78 12 L85 18 L85 28 L78 34 L8 34 L0 28 Z" fill="url(#goldBar2)"/>
      <path d="M8 12 L78 12 L85 18 L8 18 Z" fill="#DCBA54" opacity="0.6"/>
      <path d="M0 18 L8 12 L8 34 L0 28 Z" fill="#7A5C12" opacity="0.5"/>
    </g>
    <!-- Fifth row (partial) -->
    <g transform="translate(-35, 104)">
      <path d="M0 18 L8 12 L78 12 L85 18 L85 28 L78 34 L8 34 L0 28 Z" fill="url(#goldBar3)"/>
      <path d="M8 12 L78 12 L85 18 L8 18 Z" fill="#D4B04C" opacity="0.6"/>
      <path d="M0 18 L8 12 L8 34 L0 28 Z" fill="#6B5010" opacity="0.5"/>
    </g>
  </g>
</svg>
