<svg width="95" height="132" viewBox="0 0 95 132" fill="none" xmlns="http://www.w3.org/2000/svg">
  <defs>
    <linearGradient id="bar1" x1="0%" y1="0%" x2="100%" y2="100%">
      <stop offset="0%" stop-color="#D4A84B"/>
      <stop offset="40%" stop-color="#C9A043"/>
      <stop offset="100%" stop-color="#8B6914"/>
    </linearGradient>
    <linearGradient id="bar2" x1="0%" y1="0%" x2="100%" y2="100%">
      <stop offset="0%" stop-color="#C9A043"/>
      <stop offset="40%" stop-color="#B8923A"/>
      <stop offset="100%" stop-color="#7A5C12"/>
    </linearGradient>
    <linearGradient id="bar3" x1="0%" y1="0%" x2="100%" y2="100%">
      <stop offset="0%" stop-color="#BF9640"/>
      <stop offset="40%" stop-color="#A88535"/>
      <stop offset="100%" stop-color="#6B5010"/>
    </linearGradient>
    <linearGradient id="barTop" x1="0%" y1="100%" x2="0%" y2="0%">
      <stop offset="0%" stop-color="#C9A043"/>
      <stop offset="100%" stop-color="#E8C65C"/>
    </linearGradient>
    <linearGradient id="fadeRight" x1="0%" y1="0%" x2="100%" y2="0%">
      <stop offset="0%" stop-color="white" stop-opacity="1"/>
      <stop offset="60%" stop-color="white" stop-opacity="1"/>
      <stop offset="100%" stop-color="white" stop-opacity="0"/>
    </linearGradient>
    <mask id="fadeMask">
      <rect width="95" height="132" fill="url(#fadeRight)"/>
    </mask>
  </defs>
  <g mask="url(#fadeMask)">
    <!-- Row 1 - top -->
    <g transform="translate(-5, 5)">
      <rect x="0" y="0" width="75" height="22" rx="2" fill="url(#bar1)"/>
      <rect x="0" y="0" width="75" height="6" rx="2" fill="url(#barTop)" opacity="0.7"/>
    </g>
    <!-- Row 2 -->
    <g transform="translate(-8, 29)">
      <rect x="0" y="0" width="78" height="22" rx="2" fill="url(#bar2)"/>
      <rect x="0" y="0" width="78" height="6" rx="2" fill="url(#barTop)" opacity="0.6"/>
    </g>
    <!-- Row 3 -->
    <g transform="translate(-11, 53)">
      <rect x="0" y="0" width="81" height="22" rx="2" fill="url(#bar3)"/>
      <rect x="0" y="0" width="81" height="6" rx="2" fill="url(#barTop)" opacity="0.5"/>
    </g>
    <!-- Row 4 -->
    <g transform="translate(-14, 77)">
      <rect x="0" y="0" width="84" height="22" rx="2" fill="url(#bar2)"/>
      <rect x="0" y="0" width="84" height="6" rx="2" fill="url(#barTop)" opacity="0.4"/>
    </g>
    <!-- Row 5 - bottom -->
    <g transform="translate(-17, 101)">
      <rect x="0" y="0" width="87" height="22" rx="2" fill="url(#bar3)"/>
      <rect x="0" y="0" width="87" height="6" rx="2" fill="url(#barTop)" opacity="0.3"/>
    </g>
  </g>
</svg>
