<svg width="160" height="46" viewBox="0 0 160 46" fill="none" xmlns="http://www.w3.org/2000/svg">
<path fill-rule="evenodd" clip-rule="evenodd" d="M14.1411 7.84136C13.7749 6.62644 12.6558 5.79492 11.3871 5.79492C9.15456 5.79492 5.60387 5.79492 2.87634 5.79492C1.96659 5.79492 1.11034 6.22549 0.567595 6.95577C0.0251387 7.68604 -0.140244 8.63002 0.122355 9.50094C2.24875 16.5566 6.81361 31.704 8.47002 37.201C8.83617 38.4159 9.95531 39.2474 11.224 39.2474C13.4568 39.2474 17.0072 39.2474 19.7348 39.2474C20.6445 39.2474 21.5008 38.8169 22.0435 38.0866C22.5863 37.3563 22.7513 36.4123 22.4887 35.5411C20.3624 28.4858 15.7975 13.3381 14.1411 7.84136Z" fill="#ED1D25"/>
<path fill-rule="evenodd" clip-rule="evenodd" d="M31.637 7.84136C31.2709 6.62644 30.1521 5.79492 28.8831 5.79492C26.6505 5.79492 23.0998 5.79492 20.3723 5.79492C19.4626 5.79492 18.6063 6.22549 18.0636 6.95577C17.5211 7.68604 17.356 8.63002 17.6183 9.50094C19.3093 15.1122 22.4627 25.5759 23.7927 29.9886C24.1586 31.2035 25.2777 32.035 26.5464 32.035C28.7792 32.035 32.3296 32.035 35.0572 32.035C35.9672 32.035 36.8232 31.6044 37.3659 30.8742C37.9087 30.1439 38.0738 29.1999 37.8112 28.3287C36.1202 22.7178 32.9667 12.2538 31.637 7.84136Z" fill="#ED1D25"/>
<path fill-rule="evenodd" clip-rule="evenodd" d="M49.2932 7.84136C48.9271 6.62644 47.8082 5.79492 46.5392 5.79492C44.3067 5.79492 40.7563 5.79492 38.0285 5.79492C37.1187 5.79492 36.2625 6.22549 35.72 6.95577C35.1773 7.68604 35.0122 8.63002 35.2748 9.50094C36.2932 12.8805 37.7604 17.7497 38.5818 20.4749C38.9477 21.6898 40.0668 22.521 41.3355 22.521C43.5684 22.521 47.1188 22.521 49.8463 22.521C50.7563 22.521 51.6123 22.0908 52.155 21.3605C52.6978 20.6302 52.8629 19.6862 52.6003 18.815C51.5818 15.4355 50.1144 10.5663 49.2932 7.84136Z" fill="#ED1D25"/>
<path d="M155.766 8.16355C156.591 6.29455 158.267 5.60742 159.999 5.60742V8.8232C158.048 8.68577 155.766 9.59279 155.766 12.6711V19.5974H152.798V5.85479H155.766V8.16355Z" fill="black"/>
<path d="M139.137 13.99C139.604 16.1339 141.336 17.2333 143.535 17.2333C145.184 17.2333 146.421 16.4912 147.08 15.5292L149.527 16.9584C148.262 18.8274 146.201 19.9543 143.507 19.9543C138.972 19.9543 136.031 16.8485 136.031 12.7257C136.031 8.65788 138.972 5.49707 143.287 5.49707C147.383 5.49707 150.186 8.79531 150.186 12.7532C150.186 13.1655 150.131 13.6052 150.076 13.99H139.137ZM139.11 11.5713H147.19C146.778 9.20758 145.046 8.19063 143.26 8.19063C141.034 8.19063 139.522 9.50992 139.11 11.5713Z" fill="black"/>
<path d="M131.87 3.79297C130.826 3.79297 129.974 2.91344 129.974 1.89648C129.974 0.852044 130.826 0 131.87 0C132.915 0 133.767 0.852044 133.767 1.89648C133.767 2.91344 132.915 3.79297 131.87 3.79297ZM130.386 19.597V5.85437H133.354V19.597H130.386Z" fill="black"/>
<path d="M122.014 5.49707C125.12 5.49707 127.209 7.64092 127.209 11.0766V19.597H124.24V11.269C124.24 9.34501 123.196 8.27308 121.574 8.27308C119.815 8.27308 118.578 9.39998 118.578 11.9011V19.597H115.61V11.269C115.61 9.34501 114.648 8.27308 113.026 8.27308C111.35 8.27308 109.975 9.39998 109.975 11.9011V19.597H107.007V5.85438H109.975V7.5035C110.855 6.15672 112.202 5.49707 113.906 5.49707C115.692 5.49707 117.011 6.29414 117.809 7.66841C118.716 6.23917 120.172 5.49707 122.014 5.49707Z" fill="black"/>
<path d="M93.3461 13.99C93.8133 16.1339 95.5449 17.2333 97.7437 17.2333C99.3928 17.2333 100.63 16.4912 101.289 15.5292L103.736 16.9584C102.471 18.8274 100.41 19.9543 97.7162 19.9543C93.1812 19.9543 90.2402 16.8485 90.2402 12.7257C90.2402 8.65788 93.1812 5.49707 97.4963 5.49707C101.592 5.49707 104.395 8.79531 104.395 12.7532C104.395 13.1655 104.34 13.6052 104.285 13.99H93.3461ZM93.3186 11.5713H101.399C100.987 9.20758 99.2554 8.19063 97.4689 8.19063C95.2426 8.19063 93.7309 9.50992 93.3186 11.5713Z" fill="black"/>
<path d="M85.2282 8.16355C86.0527 6.29455 87.7293 5.60742 89.4609 5.60742V8.8232C87.5095 8.68577 85.2282 9.59279 85.2282 12.6711V19.5974H82.2598V5.85479H85.2282V8.16355Z" fill="black"/>
<path d="M72.7256 5.49707C76.4636 5.49707 79.5694 8.65788 79.5694 12.7257C79.5694 16.821 76.4636 19.9543 72.7256 19.9543C70.5817 19.9543 68.9601 19.0748 67.9157 17.6456V25.0941H64.9473V5.85438H67.9157V7.83332C68.9601 6.3766 70.5817 5.49707 72.7256 5.49707ZM72.2584 17.1233C74.732 17.1233 76.601 15.2818 76.601 12.7257C76.601 10.1696 74.732 8.32805 72.2584 8.32805C69.7847 8.32805 67.9157 10.1696 67.9157 12.7257C67.9157 15.2818 69.7847 17.1233 72.2584 17.1233Z" fill="black"/>
<path d="M152.031 35.2842C152.031 37.6742 159.096 36.2297 159.096 41.0885C159.096 43.7148 156.811 45.1331 153.975 45.1331C151.349 45.1331 149.458 43.9512 148.617 42.0602L151.06 40.642C151.48 41.8238 152.53 42.533 153.975 42.533C155.236 42.533 156.207 42.1127 156.207 41.0622C156.207 38.7247 149.142 40.0379 149.142 35.3367C149.142 32.8679 151.27 31.3184 153.949 31.3184C156.102 31.3184 157.888 32.3164 158.808 34.0498L156.418 35.3892C155.945 34.365 155.026 33.8922 153.949 33.8922C152.924 33.8922 152.031 34.3387 152.031 35.2842Z" fill="black"/>
<path d="M147.398 34.3917H144.141V40.695C144.141 42.3759 145.244 42.3497 147.398 42.2446V44.7922C143.038 45.3175 141.305 44.1093 141.305 40.695V34.3917H138.889V31.6603H141.305V28.8238L144.141 27.9834V31.6603H147.398V34.3917Z" fill="black"/>
<path d="M127.429 39.4338C127.875 41.4824 129.53 42.533 131.631 42.533C133.207 42.533 134.389 41.8238 135.019 40.9046L137.356 42.2703C136.148 44.0563 134.179 45.1331 131.605 45.1331C127.271 45.1331 124.461 42.1653 124.461 38.2257C124.461 34.3387 127.271 31.3184 131.395 31.3184C135.308 31.3184 137.987 34.47 137.987 38.252C137.987 38.6459 137.934 39.0662 137.882 39.4338H127.429ZM127.402 37.1226H135.124C134.73 34.864 133.075 33.8922 131.368 33.8922C129.241 33.8922 127.796 35.1529 127.402 37.1226Z" fill="black"/>
<path d="M124.339 44.7918H120.951L115.567 38.7249V44.7918H112.73V26.4072H115.567V37.4643L120.662 31.66H124.129L118.351 38.0946L124.339 44.7918Z" fill="black"/>
<path d="M106.59 33.8664C107.378 32.0804 108.98 31.4238 110.635 31.4238V34.4967C108.77 34.3654 106.59 35.2321 106.59 38.1736V44.7921H103.754V31.6602H106.59V33.8664Z" fill="black"/>
<path d="M97.6114 31.6598H100.448V44.7916H97.6114V42.9007C96.6134 44.2926 95.0638 45.1331 93.0153 45.1331C89.4434 45.1331 86.4756 42.1127 86.4756 38.2257C86.4756 34.3124 89.4434 31.3184 93.0153 31.3184C95.0638 31.3184 96.6134 32.1588 97.6114 33.5245V31.6598ZM93.4617 42.4279C95.8255 42.4279 97.6114 40.6682 97.6114 38.2257C97.6114 35.7832 95.8255 34.0235 93.4617 34.0235C91.098 34.0235 89.3121 35.7832 89.3121 38.2257C89.3121 40.6682 91.098 42.4279 93.4617 42.4279Z" fill="black"/>
<path d="M79.2111 31.3184C82.1789 31.3184 84.1749 33.3669 84.1749 36.6499V44.7916H81.3384V36.8337C81.3384 34.9953 80.3404 33.971 78.7909 33.971C77.11 33.971 75.9281 35.0478 75.9281 37.4378V44.7916H73.0916V36.8337C73.0916 34.9953 72.1724 33.971 70.6228 33.971C69.0208 33.971 67.7076 35.0478 67.7076 37.4378V44.7916H64.8711V31.6598H67.7076V33.2356C68.548 31.9487 69.8349 31.3184 71.4633 31.3184C73.1704 31.3184 74.4311 32.08 75.1927 33.3932C76.0594 32.0275 77.4514 31.3184 79.2111 31.3184Z" fill="black"/>
</svg>
