<svg width="53" height="46" viewBox="0 0 53 46" fill="none" xmlns="http://www.w3.org/2000/svg">
<path fill-rule="evenodd" clip-rule="evenodd" d="M14.1411 7.84136C13.7749 6.62644 12.6558 5.79492 11.3871 5.79492C9.15456 5.79492 5.60387 5.79492 2.87634 5.79492C1.96659 5.79492 1.11034 6.22549 0.567595 6.95577C0.0251387 7.68604 -0.140244 8.63002 0.122355 9.50094C2.24875 16.5566 6.81361 31.704 8.47002 37.201C8.83617 38.4159 9.95531 39.2474 11.224 39.2474C13.4568 39.2474 17.0072 39.2474 19.7348 39.2474C20.6445 39.2474 21.5008 38.8169 22.0435 38.0866C22.5863 37.3563 22.7513 36.4123 22.4887 35.5411C20.3624 28.4858 15.7975 13.3381 14.1411 7.84136Z" fill="#ED1D25"/>
<path fill-rule="evenodd" clip-rule="evenodd" d="M31.637 7.84136C31.2709 6.62644 30.1521 5.79492 28.8831 5.79492C26.6505 5.79492 23.0998 5.79492 20.3723 5.79492C19.4626 5.79492 18.6063 6.22549 18.0636 6.95577C17.5211 7.68604 17.356 8.63002 17.6183 9.50094C19.3093 15.1122 22.4627 25.5759 23.7927 29.9886C24.1586 31.2035 25.2777 32.035 26.5464 32.035C28.7792 32.035 32.3296 32.035 35.0572 32.035C35.9672 32.035 36.8232 31.6044 37.3659 30.8742C37.9087 30.1439 38.0738 29.1999 37.8112 28.3287C36.1202 22.7178 32.9667 12.2538 31.637 7.84136Z" fill="#ED1D25"/>
<path fill-rule="evenodd" clip-rule="evenodd" d="M49.2932 7.84136C48.9271 6.62644 47.8082 5.79492 46.5392 5.79492C44.3067 5.79492 40.7563 5.79492 38.0285 5.79492C37.1187 5.79492 36.2625 6.22549 35.72 6.95577C35.1773 7.68604 35.0122 8.63002 35.2748 9.50094C36.2932 12.8805 37.7604 17.7497 38.5818 20.4749C38.9477 21.6898 40.0668 22.521 41.3355 22.521C43.5684 22.521 47.1188 22.521 49.8463 22.521C50.7563 22.521 51.6123 22.0908 52.155 21.3605C52.6978 20.6302 52.8629 19.6862 52.6003 18.815C51.5818 15.4355 50.1144 10.5663 49.2932 7.84136Z" fill="#ED1D25"/>
</svg>
