<svg width="148" height="78" viewBox="0 0 148 78" fill="none" xmlns="http://www.w3.org/2000/svg">
<g filter="url(#filter0_d_3787_43458)">
<path d="M124.422 7.58301H23.5789C18.7708 7.58301 14.873 11.4632 14.873 16.2497V47.3052C14.873 52.0917 18.7708 55.9719 23.5789 55.9719H124.422C129.23 55.9719 133.128 52.0917 133.128 47.3052V16.2497C133.128 11.4632 129.23 7.58301 124.422 7.58301Z" fill="white"/>
<path d="M124.422 7.40234H23.5787C18.6704 7.40234 14.6914 11.3634 14.6914 16.2496V47.3051C14.6914 52.1913 18.6704 56.1523 23.5787 56.1523H124.422C129.33 56.1523 133.309 52.1913 133.309 47.3051V16.2496C133.309 11.3634 129.33 7.40234 124.422 7.40234Z" stroke="#D6DCE5"/>
<path d="M68.5387 34.7526V31.1386C68.5387 29.7545 67.6891 28.851 66.2411 28.851C65.5072 28.851 64.7346 29.1009 64.1749 29.8698C63.7497 29.2162 63.1512 28.851 62.2436 28.851C61.6451 28.851 61.027 29.024 60.5442 29.6968V28.9663H59.2891V34.7526H60.5638V31.5615C60.5638 30.5426 61.1042 30.0621 61.9542 30.0621C62.8037 30.0621 63.2285 30.6003 63.2285 31.5615V34.7526H64.5028V31.5615C64.5028 30.5426 65.1017 30.0621 65.8932 30.0621C66.7431 30.0621 67.1679 30.6003 67.1679 31.5615V34.7526H68.5387ZM87.3666 28.9663H85.3004V27.217H84.0257V28.9663H82.8671V30.1197H84.0257V32.7726C84.0257 34.099 84.5666 34.8871 86.0147 34.8871C86.5555 34.8871 87.1733 34.7141 87.5788 34.4642L87.2121 33.3877C86.845 33.6376 86.4202 33.6953 86.1307 33.6953C85.5319 33.6953 85.2808 33.33 85.2808 32.7341V30.1389H87.347V28.9663H87.3666ZM98.1224 28.851C97.3885 28.851 96.9057 29.2162 96.6163 29.6968V28.9663H95.3416V34.7526H96.6163V31.5038C96.6163 30.5426 97.041 30.0044 97.8329 30.0044C98.0839 30.0044 98.3734 30.062 98.6244 30.1197L98.9915 28.9086C98.7405 28.851 98.3734 28.851 98.1224 28.851ZM81.8438 29.4469C81.2449 29.024 80.3954 28.851 79.4878 28.851C78.0397 28.851 77.0741 29.5815 77.0741 30.7156C77.0741 31.6768 77.8079 32.2151 79.063 32.4073L79.6616 32.465C80.3181 32.5803 80.6852 32.7726 80.6852 33.0609C80.6852 33.4838 80.2024 33.7914 79.3529 33.7914C78.5029 33.7914 77.8464 33.4838 77.4216 33.1955L76.8231 34.1566C77.4796 34.6372 78.3872 34.8871 79.2948 34.8871C80.9939 34.8871 81.9595 34.099 81.9595 33.0225C81.9595 32.0036 81.168 31.4653 79.9706 31.2731L79.3721 31.2155C78.8312 31.1578 78.4065 31.0424 78.4065 30.6772C78.4065 30.2543 78.8312 30.0236 79.4878 30.0236C80.2216 30.0236 80.9362 30.3312 81.303 30.5042L81.8438 29.4469ZM115.618 28.851C114.884 28.851 114.401 29.2162 114.111 29.6968V28.9663H112.837V34.7526H114.111V31.5038C114.111 30.5426 114.536 30.0044 115.328 30.0044C115.579 30.0044 115.869 30.062 116.12 30.1197L116.487 28.9086C116.216 28.851 115.849 28.851 115.618 28.851ZM99.3971 31.8498C99.3971 33.5992 100.613 34.8679 102.487 34.8679C103.336 34.8679 103.935 34.6949 104.553 34.2143L103.954 33.1955C103.471 33.5607 102.989 33.7337 102.448 33.7337C101.424 33.7337 100.691 33.0032 100.691 31.8691C100.691 30.7925 101.424 30.062 102.448 30.0044C102.989 30.0044 103.471 30.1774 103.954 30.5426L104.553 29.5238C103.954 29.0432 103.336 28.8702 102.487 28.8702C100.613 28.851 99.3971 30.1197 99.3971 31.8498ZM111.138 28.9663H109.863V29.6968C109.438 29.1585 108.84 28.851 108.048 28.851C106.406 28.851 105.151 30.1197 105.151 31.8691C105.151 33.6184 106.426 34.8871 108.048 34.8871C108.898 34.8871 109.496 34.5796 109.863 34.0413V34.7718H111.138V28.9663ZM106.484 31.8498C106.484 30.831 107.14 29.9852 108.241 29.9852C109.264 29.9852 109.998 30.7733 109.998 31.8498C109.998 32.8687 109.264 33.7145 108.241 33.7145C107.14 33.6568 106.484 32.8879 106.484 31.8498ZM91.2864 28.851C89.5873 28.851 88.3899 30.062 88.3899 31.8691C88.3899 33.6761 89.6066 34.8871 91.3637 34.8871C92.2133 34.8871 93.0632 34.6372 93.7197 34.099L93.1208 33.1955C92.6384 33.5607 92.0395 33.7914 91.4217 33.7914C90.6299 33.7914 89.8576 33.4261 89.6646 32.4073H93.9512V31.9267C94.0092 30.0428 92.9279 28.851 91.2864 28.851ZM91.2864 29.9275C92.0783 29.9275 92.6188 30.4081 92.7349 31.3116H89.7031C89.8384 30.5426 90.3789 29.9275 91.2864 29.9275ZM122.82 26.6787H121.546V29.6968C121.121 29.1585 120.523 28.851 119.731 28.851C118.089 28.851 116.834 30.1197 116.834 31.8691C116.834 33.6184 118.109 34.8871 119.731 34.8871C120.58 34.8871 121.179 34.5796 121.546 34.0413V34.7718H122.82V26.6787ZM118.147 31.8498C118.147 30.831 118.804 29.9852 119.904 29.9852C120.928 29.9852 121.662 30.7733 121.662 31.8498C121.662 32.8687 120.928 33.7145 119.904 33.7145C118.823 33.6568 118.147 32.8879 118.147 31.8498ZM75.6837 28.9663H74.4094V29.6968C73.9842 29.1585 73.3857 28.851 72.5942 28.851C70.9528 28.851 69.6973 30.1197 69.6973 31.8691C69.6973 33.6184 70.972 34.8871 72.5942 34.8871C73.4437 34.8871 74.0423 34.5796 74.4094 34.0413V34.7718H75.6837V28.9663ZM70.972 31.8498C70.972 30.831 71.6286 29.9852 72.7291 29.9852C73.7528 29.9852 74.4866 30.7733 74.4866 31.8498C74.4866 32.8687 73.7528 33.7145 72.7291 33.7145C71.6286 33.6568 70.972 32.8879 70.972 31.8498Z" fill="#000008"/>
<path d="M43.2985 24.9619H35.6807V38.5842H43.2985V24.9619Z" fill="#FF5F00"/>
<path d="M36.1591 31.777C36.1591 29.0111 37.4636 26.5524 39.4704 24.962C37.9962 23.8095 36.136 23.1104 34.0985 23.1104C29.2902 23.1104 25.3926 26.9827 25.3926 31.777C25.3926 36.5635 29.2824 40.4437 34.0985 40.4437C36.1283 40.4437 37.9882 39.7446 39.4704 38.5919C37.4636 37.0247 36.1591 34.543 36.1591 31.777Z" fill="#EB001B"/>
<path d="M53.5709 31.777C53.5709 36.5635 49.6809 40.4437 44.8651 40.4437C42.8351 40.4437 40.975 39.7446 39.4932 38.5919C41.5231 37.0016 42.8043 34.5507 42.8043 31.777C42.8043 29.0111 41.4999 26.5524 39.4932 24.962C40.9674 23.8095 42.8275 23.1104 44.8651 23.1104C49.6809 23.1104 53.5709 27.0057 53.5709 31.777Z" fill="#F79E1B"/>
</g>
<defs>
<filter id="filter0_d_3787_43458" x="6.19141" y="4.90234" width="131.617" height="61.75" filterUnits="userSpaceOnUse" color-interpolation-filters="sRGB">
<feFlood flood-opacity="0" result="BackgroundImageFix"/>
<feColorMatrix in="SourceAlpha" type="matrix" values="0 0 0 0 0 0 0 0 0 0 0 0 0 0 0 0 0 0 127 0" result="hardAlpha"/>
<feOffset dx="-2" dy="4"/>
<feGaussianBlur stdDeviation="3"/>
<feColorMatrix type="matrix" values="0 0 0 0 0.211801 0 0 0 0 0 0 0 0 0 0 0 0 0 0.17 0"/>
<feBlend mode="normal" in2="BackgroundImageFix" result="effect1_dropShadow_3787_43458"/>
<feBlend mode="normal" in="SourceGraphic" in2="effect1_dropShadow_3787_43458" result="shape"/>
</filter>
</defs>
</svg>
