<svg width="93" height="32" viewBox="0 0 93 32" fill="none" xmlns="http://www.w3.org/2000/svg">
<path d="M62.754 31.6167H70.4769V9.77021H62.754V31.6167ZM58.4054 9.44807C51.2708 9.67985 47.647 12.9091 47.647 19.3243V31.6167H55.4401V21.5911C55.4401 17.749 55.9389 16.0912 60.4589 15.9458V9.562C59.9348 9.47495 59.4041 9.43551 58.873 9.44414H58.4132M0 11.2552C0 13.7773 1.07155 19.7172 11.0389 20.4047C11.8845 20.4558 14.125 20.5854 14.125 22.7068C14.125 24.455 12.2897 25.4842 9.20366 25.4842C6.23915 25.4588 3.30446 24.8849 0.545518 23.7911V30.7681C3.91128 31.6053 7.37006 32.0014 10.8363 31.9466C19.3464 31.9466 23.1572 27.1067 23.1572 22.3139C23.1572 16.8808 18.871 13.3491 11.7364 12.8855C10.7623 12.8227 8.50228 12.6734 8.50228 10.6227C8.50228 8.15166 11.7559 8.15166 12.9755 8.15166C15.1186 8.15166 17.8969 8.78808 19.8802 9.38914C19.8802 9.38914 20.9868 9.78199 21.9298 10.1748L22.0155 10.1984V3.39816L21.8947 3.36281C19.5568 2.53782 16.8292 1.74426 11.7871 1.74426C3.08217 1.74819 0 6.85918 0 11.2552ZM25.0977 3.35102V31.6363H33.0622V22.8718C35.3729 26.3642 36.5107 31.6167 36.5107 31.6167H46.0533C45.1065 27.6606 40.9878 20.3654 40.9878 20.3654C43.44 17.1784 45.3313 13.5906 46.5794 9.75842H37.4614C36.4151 12.5168 34.9292 15.0844 33.0622 17.3601V1.74819L25.0977 3.35102ZM73.7461 3.15459V31.6324H81.4613V1.77569L73.7461 3.15459ZM85.015 3.15459V31.6324H92.7379V1.77569L85.015 3.15459ZM66.6154 0.0117851C65.8625 0.0117851 65.1265 0.23689 64.5004 0.658632C63.8744 1.08037 63.3864 1.67981 63.0983 2.38114C62.8102 3.08247 62.7348 3.8542 62.8817 4.59873C63.0286 5.34326 63.3911 6.02715 63.9235 6.56393C64.4559 7.1007 65.1343 7.46625 65.8728 7.61435C66.6112 7.76244 67.3767 7.68643 68.0723 7.39593C68.7679 7.10543 69.3625 6.61349 69.7808 5.9823C70.1991 5.35112 70.4224 4.60906 70.4224 3.84994C70.4255 2.83268 70.0279 1.85577 69.317 1.13388C68.6061 0.411991 67.64 0.00416005 66.631 0L66.6154 0.0117851Z" fill="#F5F5F5"/>
</svg>
