<svg width="51" height="52" viewBox="0 0 51 52" fill="none" xmlns="http://www.w3.org/2000/svg">
<rect x="0.5" y="0.5" width="49.4596" height="50.5332" rx="12.5" fill="#FF0000" fill-opacity="0.1" stroke="#FFDADA"/>
<g filter="url(#filter0_d_3787_43495)">
<path d="M12.5663 14.7777C12 15.6114 12 18.0896 12 23.0458V25.4866C12 34.2256 18.3584 38.4665 22.3478 40.2673C23.43 40.7558 23.9711 41 25.5 41C27.0289 41 27.57 40.7558 28.6522 40.2673C32.6416 38.4665 39 34.2256 39 25.4866V23.0458C39 18.0896 39 15.6114 38.4337 14.7777C37.8675 13.944 35.6125 13.1464 31.1026 11.5512L30.2434 11.2473C27.8925 10.4158 26.7171 10 25.5 10C24.2829 10 23.1075 10.4158 20.7566 11.2473L19.8974 11.5512C15.3875 13.1464 13.1325 13.944 12.5663 14.7777Z" fill="url(#paint0_linear_3787_43495)" stroke="url(#paint1_linear_3787_43495)"/>
<path d="M23.2919 20.045L23.0953 20.3977C22.8793 20.7852 22.7713 20.9789 22.603 21.1067C22.4346 21.2345 22.2249 21.2819 21.8055 21.3768L21.4237 21.4632C19.9479 21.7971 19.21 21.9641 19.0345 22.5286C18.8589 23.0932 19.3619 23.6814 20.3681 24.858L20.6284 25.1623L20.6284 25.1623C20.9143 25.4967 21.0572 25.6638 21.1215 25.8706C21.1858 26.0774 21.1642 26.3005 21.121 26.7465L21.0816 27.1526C20.9295 28.7224 20.8535 29.5072 21.3131 29.8561C21.7727 30.205 22.4636 29.8869 23.8454 29.2507L23.8454 29.2507L24.2029 29.0861C24.5956 28.9053 24.7919 28.8149 25 28.8149C25.2081 28.8149 25.4044 28.9053 25.7971 29.0861L26.1546 29.2507L26.1546 29.2507C27.5364 29.8869 28.2273 30.205 28.6869 29.8561C29.1465 29.5072 29.0705 28.7224 28.9184 27.1527L28.879 26.7465L28.879 26.7465C28.8358 26.3005 28.8142 26.0774 28.8785 25.8706C28.9428 25.6638 29.0857 25.4967 29.3716 25.1623L29.6319 24.858L29.6319 24.8579C30.6381 23.6814 31.1411 23.0932 30.9655 22.5286C30.79 21.9641 30.0521 21.7971 28.5763 21.4632L28.1945 21.3768C27.7751 21.2819 27.5654 21.2345 27.397 21.1067C27.2287 20.9789 27.1207 20.7852 26.9047 20.3978L26.9047 20.3978L26.7081 20.045L26.7081 20.045C25.9481 18.6817 25.5681 18 25 18C24.4319 18 24.0519 18.6817 23.2919 20.045L23.2919 20.045Z" fill="white"/>
</g>
<defs>
<filter id="filter0_d_3787_43495" x="7.5" y="9.5" width="36" height="40" filterUnits="userSpaceOnUse" color-interpolation-filters="sRGB">
<feFlood flood-opacity="0" result="BackgroundImageFix"/>
<feColorMatrix in="SourceAlpha" type="matrix" values="0 0 0 0 0 0 0 0 0 0 0 0 0 0 0 0 0 0 127 0" result="hardAlpha"/>
<feOffset dy="4"/>
<feGaussianBlur stdDeviation="2"/>
<feComposite in2="hardAlpha" operator="out"/>
<feColorMatrix type="matrix" values="0 0 0 0 0 0 0 0 0 0 0 0 0 0 0 0 0 0 0.25 0"/>
<feBlend mode="normal" in2="BackgroundImageFix" result="effect1_dropShadow_3787_43495"/>
<feBlend mode="normal" in="SourceGraphic" in2="effect1_dropShadow_3787_43495" result="shape"/>
</filter>
<linearGradient id="paint0_linear_3787_43495" x1="12.9375" y1="14.0688" x2="26.1822" y2="40.6602" gradientUnits="userSpaceOnUse">
<stop stop-color="#B00000"/>
<stop offset="0.744792" stop-color="#FF0000"/>
<stop offset="1" stop-color="#FF0000"/>
</linearGradient>
<linearGradient id="paint1_linear_3787_43495" x1="10" y1="3.8" x2="31.0196" y2="40.4147" gradientUnits="userSpaceOnUse">
<stop stop-color="#FFBFBF"/>
<stop offset="1" stop-color="#FF6060"/>
</linearGradient>
</defs>
</svg>
