<svg width="24" height="26" viewBox="0 0 24 26" fill="none" xmlns="http://www.w3.org/2000/svg">
<path opacity="0.35" d="M12.0007 13.3333C15.6825 13.3333 18.6673 10.3486 18.6673 6.66667C18.6673 2.98477 15.6825 0 12.0007 0C8.31875 0 5.33398 2.98477 5.33398 6.66667C5.33398 10.3486 8.31875 13.3333 12.0007 13.3333Z" fill="url(#paint0_linear_3787_43714)"/>
<path d="M20 17.333H4C1.79067 17.333 0 19.1237 0 21.333C0 23.5423 1.79067 25.333 4 25.333H20C22.2093 25.333 24 23.5423 24 21.333C24 19.1237 22.2093 17.333 20 17.333Z" fill="url(#paint1_linear_3787_43714)"/>
<defs>
<linearGradient id="paint0_linear_3787_43714" x1="7.50065" y1="-0.171654" x2="15.2033" y2="11.1555" gradientUnits="userSpaceOnUse">
<stop stop-color="#FFDDDE"/>
<stop offset="1" stop-color="#ED1D25"/>
</linearGradient>
<linearGradient id="paint1_linear_3787_43714" x1="12" y1="17.333" x2="12" y2="25.333" gradientUnits="userSpaceOnUse">
<stop stop-color="#E4030C"/>
<stop offset="1" stop-color="#ED1D25"/>
</linearGradient>
</defs>
</svg>
