<svg width="92" height="30" viewBox="0 0 92 30" fill="none" xmlns="http://www.w3.org/2000/svg">
<path d="M45.5329 0.523977L39.3881 29.1659H31.9578L38.1035 0.523977H45.5329ZM76.7952 19.0182L80.7072 8.26214L82.9582 19.0182H76.7952ZM85.0856 29.1659H91.9586L85.9611 0.523977H79.6172C78.1916 0.523977 76.9889 1.35073 76.4534 2.62532L65.3056 29.1659H73.1087L74.6578 24.8889H84.191L85.0856 29.1659ZM65.6929 19.8141C65.7247 12.2545 55.2088 11.8384 55.2815 8.46158C55.3034 7.43266 56.2861 6.3412 58.4326 6.06108C59.499 5.92238 62.4309 5.81631 65.7602 7.34382L67.0639 1.27005C65.2756 0.622789 62.9746 0 60.1127 0C52.7687 0 47.5994 3.89356 47.5557 9.46874C47.5094 13.5916 51.2459 15.8924 54.0615 17.2631C56.9562 18.6673 57.9289 19.5666 57.9162 20.8222C57.8971 22.7449 55.607 23.5916 53.4705 23.6252C49.734 23.6841 47.5657 22.6198 45.8375 21.8166L44.4911 28.0925C46.2266 28.8876 49.4313 29.5784 52.756 29.6137C60.5609 29.6137 65.6675 25.7682 65.6929 19.8141ZM34.9152 0.523977L22.8765 29.1659H15.0207L9.09677 6.30766C8.73675 4.89981 8.42401 4.3849 7.33032 3.79112C5.5457 2.82566 2.59557 1.91822 0 1.35617L0.17728 0.523977H12.8206C14.4315 0.523977 15.8816 1.59368 16.2471 3.44392L19.3763 20.019L27.1085 0.523977H34.9152Z" fill="#F5F5F5"/>
</svg>
