<svg xmlns="http://www.w3.org/2000/svg" style="display: none;">
  <!-- Status bar icons -->
  <symbol id="icon-signal" viewBox="0 0 18 12">
    <rect x="0" y="7" width="3" height="5" rx="0.5" fill="currentColor"/>
    <rect x="5" y="5" width="3" height="7" rx="0.5" fill="currentColor"/>
    <rect x="10" y="2" width="3" height="10" rx="0.5" fill="currentColor"/>
    <rect x="15" y="0" width="3" height="12" rx="0.5" fill="currentColor"/>
  </symbol>

  <symbol id="icon-wifi" viewBox="0 0 16 12">
    <path d="M8 2.5C10.7 2.5 13.2 3.5 15 5.2C15.3 5.5 15.3 6 15 6.3C14.7 6.6 14.2 6.6 13.9 6.3C12.4 4.9 10.3 4 8 4C5.7 4 3.6 4.9 2.1 6.3C1.8 6.6 1.3 6.6 1 6.3C0.7 6 0.7 5.5 1 5.2C2.8 3.5 5.3 2.5 8 2.5ZM8 6C9.8 6 11.4 6.7 12.6 7.8C12.9 8.1 12.9 8.6 12.6 8.9C12.3 9.2 11.8 9.2 11.5 8.9C10.6 8.1 9.4 7.5 8 7.5C6.6 7.5 5.4 8.1 4.5 8.9C4.2 9.2 3.7 9.2 3.4 8.9C3.1 8.6 3.1 8.1 3.4 7.8C4.6 6.7 6.2 6 8 6ZM9.5 10.5C9.5 11.3 8.8 12 8 12C7.2 12 6.5 11.3 6.5 10.5C6.5 9.7 7.2 9 8 9C8.8 9 9.5 9.7 9.5 10.5Z" fill="currentColor"/>
  </symbol>

  <symbol id="icon-battery" viewBox="0 0 25 12">
    <rect x="0.5" y="0.5" width="21" height="11" rx="2.5" stroke="currentColor" stroke-opacity="0.5" fill="none"/>
    <rect x="2" y="2" width="18" height="8" rx="1.5" fill="currentColor"/>
    <path d="M23 4v4a2 2 0 0 0 0-4Z" fill="currentColor" fill-opacity="0.5"/>
  </symbol>

  <!-- Ticker trend icons -->
  <symbol id="icon-trend-up" viewBox="0 0 40 16">
    <path d="M2 14L10 8L18 11L28 4L38 2" stroke="currentColor" stroke-width="2" stroke-linecap="round" stroke-linejoin="round" fill="none"/>
  </symbol>

  <symbol id="icon-trend-down" viewBox="0 0 40 16">
    <path d="M2 2L10 8L18 5L28 12L38 14" stroke="currentColor" stroke-width="2" stroke-linecap="round" stroke-linejoin="round" fill="none"/>
  </symbol>

  <!-- Navigation icons -->
  <symbol id="icon-chevron-down" viewBox="0 0 16 16">
    <path d="M4 6L8 10L12 6" stroke="currentColor" stroke-width="1.5" stroke-linecap="round" stroke-linejoin="round" fill="none"/>
  </symbol>

  <symbol id="icon-chevron-right" viewBox="0 0 16 16">
    <path d="M6 4L10 8L6 12" stroke="currentColor" stroke-width="1.5" stroke-linecap="round" stroke-linejoin="round" fill="none"/>
  </symbol>

  <symbol id="icon-chevron-right-sm" viewBox="0 0 6 12">
    <path d="M1 1L5 6L1 11" stroke="currentColor" stroke-width="1.5" stroke-linecap="round" stroke-linejoin="round" fill="none"/>
  </symbol>

  <symbol id="icon-arrow-right" viewBox="0 0 12 12">
    <path d="M2 6H10M10 6L6 2M10 6L6 10" stroke="currentColor" stroke-width="1.5" stroke-linecap="round" stroke-linejoin="round" fill="none"/>
  </symbol>

  <!-- Social icons -->
  <symbol id="icon-facebook" viewBox="0 0 20 20">
    <path d="M18.9 0H1.1C.5 0 0 .5 0 1.1v17.8c0 .6.5 1.1 1.1 1.1h9.6v-7.7H8.1v-3h2.6V7c0-2.6 1.6-4 3.9-4 1.1 0 2.1.1 2.3.1v2.7h-1.6c-1.3 0-1.5.6-1.5 1.5v1.9h3l-.4 3h-2.6V20h5.1c.6 0 1.1-.5 1.1-1.1V1.1c0-.6-.5-1.1-1.1-1.1z" fill="currentColor"/>
  </symbol>

  <symbol id="icon-linkedin" viewBox="0 0 20 20">
    <path d="M18.5 0h-17C.7 0 0 .7 0 1.5v17c0 .8.7 1.5 1.5 1.5h17c.8 0 1.5-.7 1.5-1.5v-17c0-.8-.7-1.5-1.5-1.5zM6 17H3V8h3v9zM4.5 6.7c-1 0-1.7-.8-1.7-1.7s.8-1.7 1.7-1.7 1.7.8 1.7 1.7-.7 1.7-1.7 1.7zM17 17h-3v-4.4c0-1.1 0-2.4-1.5-2.4s-1.7 1.1-1.7 2.3V17H8V8h2.9v1.2h0c.4-.8 1.4-1.6 2.8-1.6 3 0 3.6 2 3.6 4.5V17h-.3z" fill="currentColor"/>
  </symbol>

  <symbol id="icon-instagram" viewBox="0 0 20 20">
    <path d="M10 1.8c2.7 0 3 0 4 .1 1 0 1.5.2 1.9.3.5.2.8.4 1.1.7.3.3.6.7.7 1.1.1.4.3.9.3 1.9.1 1.1.1 1.4.1 4s0 3-.1 4c0 1-.2 1.5-.3 1.9-.2.5-.4.8-.7 1.1-.3.3-.7.6-1.1.7-.4.1-.9.3-1.9.3-1.1.1-1.4.1-4 .1s-3 0-4-.1c-1 0-1.5-.2-1.9-.3-.5-.2-.8-.4-1.1-.7-.3-.3-.6-.7-.7-1.1-.1-.4-.3-.9-.3-1.9-.1-1.1-.1-1.4-.1-4s0-3 .1-4c0-1 .2-1.5.3-1.9.2-.5.4-.8.7-1.1.3-.3.7-.6 1.1-.7.4-.1.9-.3 1.9-.3 1.1-.1 1.4-.1 4-.1zM10 0C7.3 0 7 0 5.9.1 4.8.1 4 .3 3.3.6c-.7.3-1.3.7-1.9 1.3S.6 3 .3 3.7C.1 4.3 0 5.1 0 6.2 0 7.3 0 7.6 0 10.3s0 3 .1 4.1c.1 1.1.3 1.9.6 2.6.3.7.7 1.3 1.3 1.9.6.6 1.2 1 1.9 1.3.7.3 1.5.5 2.6.6 1.1.1 1.4.1 4.1.1s3 0 4.1-.1c1.1-.1 1.9-.3 2.6-.6.7-.3 1.3-.7 1.9-1.3.6-.6 1-1.2 1.3-1.9.3-.7.5-1.5.6-2.6.1-1.1.1-1.4.1-4.1s0-3-.1-4.1c-.1-1.1-.3-1.9-.6-2.6-.3-.7-.7-1.3-1.3-1.9-.6-.6-1.2-1-1.9-1.3-.7-.3-1.5-.5-2.6-.6C13 0 12.7 0 10 0zm0 4.9c-2.8 0-5.1 2.3-5.1 5.1s2.3 5.1 5.1 5.1 5.1-2.3 5.1-5.1-2.3-5.1-5.1-5.1zm0 8.4c-1.8 0-3.3-1.5-3.3-3.3S8.2 6.7 10 6.7s3.3 1.5 3.3 3.3-1.5 3.3-3.3 3.3zm6.5-8.6c0 .7-.6 1.2-1.2 1.2-.7 0-1.2-.6-1.2-1.2 0-.7.6-1.2 1.2-1.2.7 0 1.2.5 1.2 1.2z" fill="currentColor"/>
  </symbol>

  <symbol id="icon-youtube" viewBox="0 0 20 20">
    <path d="M19.6 5.2c-.2-.9-.9-1.6-1.8-1.8C16.2 3 10 3 10 3s-6.2 0-7.8.4c-.9.2-1.6.9-1.8 1.8C0 6.8 0 10 0 10s0 3.2.4 4.8c.2.9.9 1.6 1.8 1.8 1.6.4 7.8.4 7.8.4s6.2 0 7.8-.4c.9-.2 1.6-.9 1.8-1.8.4-1.6.4-4.8.4-4.8s0-3.2-.4-4.8zM8 13V7l5.2 3L8 13z" fill="currentColor"/>
  </symbol>

  <symbol id="icon-twitter" viewBox="0 0 20 20">
    <path d="M17.3 1.9L10.8 9.5l7.2 9.6h-5.9l-4.6-6.2-5.3 6.2H.5l6.9-7.9L.5 1.9h6l4.2 5.7 5-5.7h1.6zm-1.5 15.3L4.9 3.8h1.6l10.9 13.4h-1.6z" fill="currentColor"/>
  </symbol>

  <!-- CTA/Step icons -->
  <symbol id="icon-user" viewBox="0 0 24 24">
    <path d="M16 7C16 9.20914 14.2091 11 12 11C9.79086 11 8 9.20914 8 7C8 4.79086 9.79086 3 12 3C14.2091 3 16 4.79086 16 7Z" stroke="currentColor" stroke-width="2" fill="none"/>
    <path d="M12 14C8.13401 14 5 17.134 5 21H19C19 17.134 15.866 14 12 14Z" stroke="currentColor" stroke-width="2" fill="none"/>
  </symbol>

  <symbol id="icon-card" viewBox="0 0 24 24">
    <path d="M3 10H21M7 15H8M12 15H13M6 19H18C19.1046 19 20 18.1046 20 17V7C20 5.89543 19.1046 5 18 5H6C4.89543 5 4 5.89543 4 7V17C4 18.1046 4.89543 19 6 19Z" stroke="currentColor" stroke-width="2" stroke-linecap="round" stroke-linejoin="round" fill="none"/>
  </symbol>

  <symbol id="icon-arrow-right-lg" viewBox="0 0 24 24">
    <path d="M13 7L18 12M18 12L13 17M18 12H6" stroke="currentColor" stroke-width="2" stroke-linecap="round" stroke-linejoin="round" fill="none"/>
  </symbol>

  <!-- Feature icons -->
  <symbol id="icon-check-circle" viewBox="0 0 24 24">
    <path d="M9 12L11 14L15 10" stroke="currentColor" stroke-width="2" stroke-linecap="round" stroke-linejoin="round" fill="none"/>
    <circle cx="12" cy="12" r="10" stroke="currentColor" stroke-width="2" fill="none"/>
  </symbol>

  <!-- Quote icon -->
  <symbol id="icon-quote" viewBox="0 0 48 48">
    <path d="M14 24H8C8 17.373 13.373 12 20 12V16C15.582 16 12 19.582 12 24V24H14C16.209 24 18 25.791 18 28V32C18 34.209 16.209 36 14 36H10C7.791 36 6 34.209 6 32V24H14Z" fill="currentColor"/>
    <path d="M38 24H32C32 17.373 37.373 12 44 12V16C39.582 16 36 19.582 36 24V24H38C40.209 24 42 25.791 42 28V32C42 34.209 40.209 36 38 36H34C31.791 36 30 34.209 30 32V24H38Z" fill="currentColor"/>
  </symbol>

  <!-- Play icon -->
  <symbol id="icon-play" viewBox="0 0 19 23">
    <path d="M19 11.5L0 23V0L19 11.5Z" fill="currentColor"/>
  </symbol>

  <!-- Cross/Plus icon -->
  <symbol id="icon-cross" viewBox="0 0 40 26">
    <path d="M20 0V26M0 13H40" stroke="currentColor" stroke-width="4" fill="none"/>
  </symbol>
</svg>
